<svg xmlns="http://www.w3.org/2000/svg" width="199.56" height="35" viewBox="0 0 199.56 35"><rect class="svg__rect" x="0" y="0" width="92.98" height="35" fill="#C13B3A"/><rect class="svg__rect" x="90.98" y="0" width="108.58000000000001" height="35" fill="#D35B09"/><path class="svg__text" d="M15.70 22L14.22 22L14.22 13.47L15.70 13.47L19.51 19.54L19.51 13.47L20.98 13.47L20.98 22L19.50 22L15.70 15.95L15.70 22ZM25.46 18.00L25.46 18.00L25.46 17.52Q25.46 16.28 25.90 15.32Q26.34 14.37 27.15 13.86Q27.95 13.35 28.99 13.35Q30.04 13.35 30.84 13.85Q31.65 14.35 32.09 15.29Q32.53 16.23 32.53 17.48L32.53 17.48L32.53 17.96Q32.53 19.21 32.10 20.16Q31.67 21.10 30.86 21.61Q30.06 22.12 29.01 22.12L29.01 22.12Q27.97 22.12 27.16 21.61Q26.35 21.10 25.90 20.17Q25.46 19.23 25.46 18.00ZM26.94 17.46L26.94 17.96Q26.94 19.36 27.49 20.13Q28.03 20.90 29.01 20.90L29.01 20.90Q29.99 20.90 30.52 20.15Q31.05 19.40 31.05 17.96L31.05 17.96L31.05 17.51Q31.05 16.09 30.52 15.34Q29.98 14.58 28.99 14.58L28.99 14.58Q28.03 14.58 27.49 15.33Q26.95 16.09 26.94 17.46L26.94 17.46ZM38.68 14.66L36.04 14.66L36.04 13.47L42.81 13.47L42.81 14.66L40.15 14.66L40.15 22L38.68 22L38.68 14.66ZM54.23 14.66L51.59 14.66L51.59 13.47L58.36 13.47L58.36 14.66L55.70 14.66L55.70 22L54.23 22L54.23 14.66ZM63.59 22L62.11 22L62.11 13.47L63.59 13.47L63.59 17.02L67.41 17.02L67.41 13.47L68.89 13.47L68.89 22L67.41 22L67.41 18.21L63.59 18.21L63.59 22ZM79.20 22L73.63 22L73.63 13.47L79.16 13.47L79.16 14.66L75.11 14.66L75.11 17.02L78.61 17.02L78.61 18.19L75.11 18.19L75.11 20.82L79.20 20.82L79.20 22Z" fill="#FFFFFF"/><path class="svg__text" d="M106.59 22L104.16 22L107.87 13.60L110.21 13.60L113.93 22L111.46 22L110.80 20.37L107.25 20.37L106.59 22ZM109.02 15.93L107.94 18.61L110.10 18.61L109.02 15.93ZM120.41 22L118.08 22L118.08 13.60L120.04 13.60L123.75 18.07L123.75 13.60L126.07 13.60L126.07 22L124.12 22L120.41 17.52L120.41 22ZM133.62 22L131.24 22L131.24 13.60L133.62 13.60L133.62 22ZM140.99 22L138.79 22L138.79 13.60L140.75 13.60L143.70 18.45L146.58 13.60L148.53 13.60L148.56 22L146.38 22L146.35 17.55L144.19 21.17L143.14 21.17L140.99 17.67L140.99 22ZM155.14 22L152.71 22L156.42 13.60L158.76 13.60L162.48 22L160.01 22L159.35 20.37L155.80 20.37L155.14 22ZM157.57 15.93L156.49 18.61L158.65 18.61L157.57 15.93ZM173.02 22L166.63 22L166.63 13.60L169.01 13.60L169.01 20.11L173.02 20.11L173.02 22ZM184.02 20.85L184.02 20.85Q184.02 20.31 184.40 19.96Q184.79 19.61 185.38 19.61L185.38 19.61Q185.98 19.61 186.36 19.96Q186.74 20.31 186.74 20.85L186.74 20.85Q186.74 21.37 186.36 21.74Q185.97 22.11 185.38 22.11L185.38 22.11Q184.79 22.11 184.40 21.74Q184.02 21.38 184.02 20.85ZM184.47 18.94L184.03 13.60L186.74 13.60L186.29 18.94L184.47 18.94Z" fill="#FFFFFF" x="103.98"/></svg>